<?xml version="1.0" ?><svg viewBox="0 0 512 512" xmlns="http://www.w3.org/2000/svg"><defs><style>.cls-1{fill:#2e4060;}.cls-2{fill:#0b0d20;}.cls-3{fill:#202d40;}.cls-4{fill:#7f8c8d;}.cls-5{fill:#c0402b;}.cls-6{fill:#bdc3c8;}</style></defs><title/><g id="Google"><g id="Gmaps"><path class="cls-1" d="M197.24,226.39,399.12,486.22a35.26,35.26,0,0,1-3.57.18H65.5Z"/><path class="cls-2" d="M432.23,241.19V437.08l-61.56-11.4-27.14-32.55L229.17,266l97.09-69c48.64,64.2,50.17,48.55,50.17,48.55s24-35.87,54.84-5.05Z"/><path class="cls-3" d="M326.26,197,26,449.73V116.85A36.68,36.68,0,0,1,62.68,80.17h219c-9.4,16.16,25.46,26.54,25.46,46.58S316.74,180.77,326.26,197Z"/><path class="cls-4" d="M432.23,437.08v12.65a36.66,36.66,0,0,1-33.11,36.49L230.18,319.51l40.89-41.44,94.39,93.13,5.21,5.15Z"/><path class="cls-4" d="M315.86,232.68l-44.79,45.39-40.89,41.44L65.5,486.4H62.68A36.69,36.69,0,0,1,26,449.73L281.83,190.47c4.79,8.2,37.74-.1,44.43,6.54l12.31,15.82C344.57,219.23,310.7,225.88,315.86,232.68Z"/><path class="cls-5" d="M121.81,230.6a58.45,58.45,0,1,1,41.32-99.77l-13.55,13.55a39.27,39.27,0,1,0,10.33,37.35h-38.1V162.57h58.45v9.58A58.52,58.52,0,0,1,121.81,230.6Z"/><path class="cls-5" d="M281.64,80.17A109.59,109.59,0,1,1,453.72,212.83a249.69,249.69,0,0,0-22.45,27.68C387.42,303,376.43,374.33,376.43,374.33s-11.93-77.46-60.57-141.65a249.73,249.73,0,0,0-16.73-19.85h0a109.62,109.62,0,0,1-17.5-132.66Z"/><path class="cls-6" d="M376.43,76.85a58.31,58.31,0,1,1-58.32,58.32A58.31,58.31,0,0,1,376.43,76.85Z"/></g></g></svg>